<svg width="311" height="92" viewBox="0 0 311 92" fill="none" xmlns="http://www.w3.org/2000/svg">
<path d="M28.88 32.86C28.07 32.26 27.17 31.8 26.17 31.46C25.17 31.13 24.2 30.92 23.24 30.84V30.76C24.17 30.65 25.06 30.43 25.91 30.08C26.76 29.73 27.51 29.28 28.16 28.72C28.81 28.16 29.33 27.51 29.72 26.77C30.11 26.03 30.3 25.22 30.3 24.34C30.3 23.7 30.17 22.99 29.9 22.21C29.63 21.43 29.14 20.7 28.42 20.02C27.7 19.34 26.72 18.77 25.47 18.31C24.22 17.85 22.62 17.61 20.68 17.61C20.31 17.61 19.92 17.62 19.52 17.63C19.12 17.64 18.71 17.65 18.28 17.65C17.85 17.68 17.44 17.7 17.02 17.71C16.61 17.72 16.2 17.73 15.8 17.73H8.82001V18.29H13.25V45.57H8.82001V46.13H15.8C16.28 46.13 16.73 46.14 17.16 46.15C17.58 46.16 18 46.18 18.4 46.21C18.8 46.24 19.18 46.26 19.54 46.27C19.9 46.28 20.26 46.29 20.64 46.29C22.47 46.29 24.08 46.08 25.47 45.67C26.85 45.26 28 44.69 28.9 43.98C29.8 43.26 30.48 42.4 30.93 41.41C31.38 40.41 31.61 39.32 31.61 38.12C31.61 36.98 31.36 35.97 30.85 35.09C30.34 34.2 29.69 33.46 28.88 32.86ZM17.25 18.28C17.6 18.23 18.01 18.19 18.51 18.18C19 18.17 19.49 18.16 19.97 18.16C20.66 18.16 21.36 18.23 22.06 18.36C22.76 18.49 23.4 18.77 23.97 19.2C24.54 19.63 25.01 20.26 25.37 21.09C25.73 21.92 25.91 23.04 25.91 24.42C25.91 25.64 25.79 26.65 25.55 27.45C25.31 28.25 24.97 28.88 24.53 29.34C24.09 29.81 23.57 30.13 22.95 30.32C22.34 30.51 21.66 30.6 20.92 30.6H17.25V18.28V18.28ZM26.62 41.73C26.35 42.71 25.94 43.5 25.36 44.1C24.79 44.7 24.06 45.12 23.17 45.36C22.28 45.6 21.21 45.72 19.96 45.72C19.24 45.72 18.69 45.7 18.31 45.66C17.92 45.62 17.57 45.59 17.25 45.56V31.16H21.64C23.42 31.16 24.76 31.77 25.67 32.99C26.57 34.21 27.03 35.89 27.03 38.02C27.02 39.51 26.89 40.75 26.62 41.73Z" fill="#383839"/>
<path d="M40.06 21.83C40.64 21.83 41.14 21.62 41.56 21.21C41.97 20.8 42.18 20.3 42.18 19.71C42.18 19.12 41.97 18.63 41.56 18.21C41.15 17.8 40.65 17.59 40.06 17.59C39.47 17.59 38.98 17.8 38.56 18.21C38.15 18.62 37.94 19.12 37.94 19.71C37.94 20.3 38.15 20.79 38.56 21.21C38.98 21.63 39.48 21.83 40.06 21.83Z" fill="#383839"/>
<path d="M41.86 29.01H35.36V29.57H38.43V45.56H35.36V46.12H44.93V45.56H41.86V29.01Z" fill="#383839"/>
<path d="M53.66 17.37H47.16V17.92H50.23V45.56H47.16V46.12H56.73V45.56H53.66V17.37Z" fill="#383839"/>
<path d="M65.47 17.37H58.97V17.92H62.04V45.56H58.97V46.12H68.54V45.56H65.47V17.37Z" fill="#383839"/>
<path d="M80.42 36.31L77.51 35.35C76.34 34.98 75.46 34.57 74.86 34.13C74.26 33.69 73.96 33.05 73.96 32.2C73.96 31.24 74.31 30.48 75.02 29.91C75.72 29.34 76.71 29.05 77.99 29.05C78.65 29.05 79.23 29.17 79.72 29.41C80.21 29.65 80.62 29.98 80.96 30.41C81.29 30.84 81.58 31.32 81.82 31.87C82.06 32.42 82.27 32.98 82.46 33.57H82.9V29.02H82.46C82.33 29.23 82.11 29.34 81.82 29.34C81.53 29.34 81.28 29.29 81.06 29.2C80.85 29.11 80.61 29.01 80.34 28.92C80.07 28.83 79.76 28.73 79.4 28.64C79.04 28.55 78.57 28.5 77.98 28.5C77.16 28.5 76.39 28.63 75.69 28.9C74.99 29.17 74.38 29.54 73.88 30.02C73.37 30.5 72.98 31.06 72.68 31.7C72.39 32.34 72.24 33.03 72.24 33.77C72.24 34.65 72.37 35.37 72.62 35.92C72.87 36.48 73.2 36.94 73.6 37.3C74 37.66 74.43 37.94 74.9 38.14C75.37 38.34 75.8 38.51 76.2 38.64L79.31 39.72C80 39.96 80.61 40.29 81.12 40.7C81.63 41.11 81.9 41.82 81.9 42.83C81.9 44 81.57 44.84 80.9 45.36C80.23 45.88 79.48 46.14 78.63 46.14C77.62 46.14 76.76 45.97 76.04 45.62C75.32 45.28 74.72 44.83 74.23 44.28C73.74 43.74 73.35 43.14 73.05 42.49C72.76 41.84 72.52 41.19 72.33 40.56H71.89V46.14H72.33C72.41 46.01 72.52 45.88 72.65 45.76C72.78 45.64 73 45.58 73.29 45.58C73.58 45.58 73.9 45.64 74.25 45.76C74.6 45.88 74.97 46.01 75.39 46.14C75.8 46.27 76.25 46.4 76.75 46.52C77.24 46.64 77.78 46.7 78.37 46.7C79.38 46.7 80.28 46.54 81.06 46.22C81.84 45.9 82.51 45.48 83.05 44.96C83.59 44.44 84.01 43.84 84.29 43.15C84.57 42.46 84.71 41.75 84.71 41.04C84.71 39.82 84.31 38.83 83.51 38.09C82.69 37.32 81.67 36.74 80.42 36.31Z" fill="#383839"/>
<path d="M115.56 45.72C115.24 45.83 114.94 45.88 114.64 45.88C114.19 45.88 113.84 45.75 113.6 45.48C113.36 45.21 113.24 44.7 113.24 43.92V34C113.24 33.28 113.13 32.6 112.92 31.95C112.71 31.3 112.35 30.71 111.84 30.2C111.33 29.68 110.67 29.27 109.85 28.96C109.03 28.65 108 28.5 106.78 28.5C105.77 28.5 104.87 28.62 104.09 28.86C103.31 29.1 102.65 29.43 102.14 29.84C101.63 30.25 101.23 30.72 100.96 31.26C100.69 31.79 100.56 32.35 100.56 32.94C100.56 33.44 100.67 33.86 100.88 34.18C101.09 34.5 101.64 34.66 102.52 34.66C103.02 34.66 103.41 34.53 103.68 34.28C103.95 34.03 104.08 33.71 104.08 33.34C104.08 33.13 104.04 32.8 103.96 32.36C103.88 31.92 103.84 31.48 103.84 31.02C103.84 30.33 104.13 29.83 104.7 29.52C105.27 29.21 106 29.06 106.87 29.06C107.53 29.06 108.07 29.15 108.47 29.34C108.87 29.53 109.17 29.8 109.39 30.16C109.6 30.52 109.75 30.95 109.83 31.46C109.91 31.97 109.95 32.54 109.95 33.18C109.95 33.98 109.89 34.61 109.77 35.07C109.65 35.54 109.43 35.92 109.11 36.23C108.79 36.54 108.35 36.79 107.77 37.01C107.2 37.22 106.47 37.48 105.6 37.77C104.86 38.01 104.12 38.24 103.39 38.45C102.66 38.66 101.99 38.94 101.4 39.27C100.8 39.6 100.32 40.05 99.94 40.61C99.57 41.17 99.38 41.91 99.38 42.84C99.38 43.24 99.44 43.67 99.56 44.14C99.68 44.61 99.93 45.02 100.3 45.4C100.67 45.77 101.19 46.08 101.86 46.34C102.52 46.59 103.42 46.72 104.53 46.72C105.51 46.72 106.32 46.61 106.96 46.38C107.6 46.15 108.11 45.88 108.5 45.54C108.89 45.21 109.17 44.86 109.36 44.5C109.55 44.14 109.69 43.84 109.8 43.6H109.88C110.09 44.58 110.48 45.35 111.06 45.89C111.63 46.43 112.56 46.71 113.83 46.71C114.52 46.71 115.11 46.61 115.58 46.41C116.06 46.21 116.47 45.98 116.82 45.71L116.5 45.27C116.18 45.46 115.87 45.62 115.56 45.72ZM109.81 40.34C109.81 40.87 109.76 41.46 109.67 42.12C109.58 42.77 109.39 43.38 109.11 43.93C108.83 44.49 108.42 44.95 107.87 45.33C107.32 45.7 106.61 45.89 105.74 45.89C105.13 45.89 104.63 45.78 104.24 45.57C103.85 45.36 103.56 45.09 103.34 44.75C103.13 44.42 102.98 44.04 102.9 43.61C102.82 43.19 102.78 42.77 102.78 42.37C102.78 41.44 103.01 40.66 103.46 40.04C103.91 39.42 104.56 38.93 105.41 38.58L108.4 37.38C109.22 37.04 109.66 36.69 109.72 36.34H109.8V40.34H109.81Z" fill="#383839"/>
<path d="M137.21 33.92C137.21 32.06 136.66 30.7 135.56 29.85C134.46 29 133.03 28.57 131.27 28.57C130.13 28.57 129.16 28.75 128.36 29.11C127.56 29.47 126.9 29.9 126.37 30.41C125.84 30.92 125.42 31.43 125.11 31.96C124.8 32.49 124.57 32.93 124.41 33.28H124.33V29.01H117.91V29.57H120.98V45.56H117.91V46.12H127.48V45.56H124.41V36.55C124.41 35.49 124.58 34.5 124.91 33.6C125.24 32.7 125.7 31.91 126.29 31.25C126.87 30.59 127.55 30.07 128.32 29.7C129.09 29.33 129.9 29.14 130.75 29.14C131.79 29.14 132.55 29.47 133.04 30.14C133.53 30.81 133.78 31.66 133.78 32.69V45.57H130.71V46.13H140.28V45.57H137.21V33.92V33.92Z" fill="#383839"/>
<path d="M160.74 17.37H154.24V17.93H157.31V32.21H157.23C156.86 31.17 156.22 30.3 155.32 29.58C154.42 28.86 153.23 28.5 151.77 28.5C150.63 28.5 149.55 28.75 148.54 29.24C147.53 29.73 146.64 30.38 145.87 31.19C145.1 32 144.49 32.95 144.04 34.04C143.59 35.13 143.36 36.27 143.36 37.47C143.36 38.69 143.59 39.86 144.06 40.96C144.52 42.06 145.16 43.04 145.95 43.89C146.75 44.74 147.67 45.42 148.72 45.92C149.77 46.42 150.88 46.68 152.05 46.68C152.95 46.68 153.72 46.53 154.34 46.22C154.96 45.91 155.48 45.55 155.9 45.12C156.31 44.7 156.62 44.26 156.84 43.8C157.05 43.35 157.21 42.96 157.32 42.64H157.4V46.11H163.82V45.55H160.75V17.37H160.74ZM157.11 41.02C156.98 41.95 156.72 42.79 156.35 43.55C155.98 44.31 155.45 44.93 154.77 45.4C154.09 45.88 153.19 46.12 152.08 46.12C150.99 46.12 150.13 45.91 149.49 45.48C148.85 45.05 148.37 44.44 148.05 43.65C147.73 42.86 147.53 41.89 147.45 40.76C147.37 39.63 147.33 38.37 147.33 36.99C147.33 35.77 147.4 34.67 147.53 33.7C147.66 32.73 147.9 31.9 148.23 31.21C148.56 30.52 149.03 29.99 149.63 29.62C150.23 29.25 150.99 29.06 151.92 29.06C152.9 29.06 153.71 29.23 154.35 29.58C154.99 29.93 155.51 30.36 155.9 30.9C156.17 31.27 156.39 31.67 156.58 32.1C156.77 32.53 156.91 33.03 157.02 33.62C157.13 34.2 157.2 34.88 157.24 35.63C157.28 36.39 157.3 37.29 157.3 38.32C157.31 39.18 157.24 40.08 157.11 41.02Z" fill="#383839"/>
<path d="M201.42 40.68C201.07 41.7 200.57 42.62 199.9 43.43C199.24 44.24 198.36 44.9 197.27 45.4C196.18 45.9 194.74 46.16 192.96 46.16C191.58 46.16 190.32 45.95 189.17 45.52C188.03 45.1 187.05 44.35 186.24 43.29C185.43 42.23 184.8 40.78 184.35 38.94C183.9 37.11 183.67 34.79 183.67 32C183.67 31.02 183.7 29.97 183.77 28.87C183.84 27.77 183.98 26.68 184.19 25.6C184.4 24.52 184.71 23.5 185.13 22.53C185.54 21.56 186.09 20.71 186.79 19.98C187.48 19.25 188.33 18.66 189.34 18.23C190.35 17.79 191.56 17.57 192.97 17.57C194.49 17.57 195.76 17.8 196.78 18.27C197.8 18.74 198.65 19.35 199.31 20.1C199.97 20.85 200.49 21.73 200.86 22.71C201.23 23.69 201.54 24.69 201.78 25.7H202.22V17.72H201.62C201.43 17.93 201.23 18.13 201 18.3C200.77 18.47 200.39 18.56 199.86 18.56C199.46 18.56 199.05 18.48 198.62 18.32C198.19 18.16 197.73 17.98 197.22 17.78C196.72 17.58 196.14 17.4 195.51 17.24C194.87 17.08 194.14 17 193.32 17C191.27 17 189.38 17.41 187.66 18.22C185.93 19.03 184.43 20.13 183.15 21.51C181.87 22.89 180.88 24.49 180.16 26.3C179.44 28.11 179.08 30.01 179.08 32C179.08 34.34 179.52 36.4 180.4 38.18C181.28 39.96 182.37 41.5 183.67 42.81C185.08 44.19 186.57 45.19 188.16 45.8C189.75 46.41 191.37 46.72 193.04 46.72C193.94 46.72 194.77 46.65 195.51 46.5C196.25 46.35 196.93 46.19 197.52 46C198.12 45.81 198.65 45.65 199.12 45.5C199.58 45.35 200.02 45.28 200.42 45.28C200.92 45.28 201.3 45.37 201.54 45.54C201.78 45.71 201.99 45.91 202.18 46.12H202.78V37.62H202.34C202.07 38.64 201.76 39.65 201.42 40.68Z" fill="#383839"/>
<path d="M225.11 33.92C225.11 32.06 224.56 30.7 223.45 29.85C222.35 29 220.92 28.57 219.16 28.57C218.07 28.57 217.13 28.74 216.35 29.07C215.56 29.4 214.9 29.8 214.36 30.27C213.81 30.73 213.38 31.23 213.06 31.75C212.74 32.27 212.51 32.7 212.38 33.05H212.3V17.38H205.8V17.94H208.87V45.58H205.8V46.14H215.37V45.58H212.3V36.57C212.3 35.51 212.47 34.52 212.8 33.62C213.13 32.72 213.59 31.93 214.18 31.27C214.76 30.61 215.44 30.09 216.21 29.72C216.98 29.35 217.79 29.16 218.64 29.16C219.68 29.16 220.44 29.49 220.93 30.16C221.42 30.83 221.67 31.68 221.67 32.71V45.59H218.6V46.15H228.17V45.59H225.1V33.92H225.11Z" fill="#383839"/>
<path d="M235 36.23H247.28C247.28 34.77 247.03 33.55 246.54 32.56C246.05 31.58 245.44 30.79 244.71 30.19C243.98 29.59 243.19 29.16 242.34 28.89C241.49 28.62 240.69 28.49 239.95 28.49C238.7 28.49 237.53 28.75 236.44 29.27C235.35 29.79 234.4 30.47 233.59 31.32C232.78 32.17 232.14 33.15 231.67 34.25C231.2 35.35 230.97 36.49 230.97 37.66C230.97 39.02 231.2 40.25 231.65 41.35C232.1 42.45 232.74 43.4 233.56 44.2C234.38 45 235.36 45.61 236.49 46.03C237.62 46.46 238.85 46.67 240.18 46.67C241.51 46.67 242.59 46.46 243.43 46.05C244.27 45.64 244.93 45.16 245.42 44.61C245.91 44.07 246.27 43.52 246.5 42.97C246.73 42.43 246.88 42.01 246.96 41.71L246.36 41.59C246.25 41.91 246.09 42.32 245.88 42.83C245.67 43.34 245.34 43.83 244.9 44.33C244.46 44.83 243.86 45.24 243.11 45.59C242.35 45.94 241.39 46.11 240.22 46.11C239.05 46.11 238.11 45.86 237.41 45.35C236.7 44.85 236.17 44.21 235.82 43.44C235.46 42.67 235.23 41.8 235.12 40.85C235.01 39.89 234.96 38.98 234.96 38.1C234.96 37.68 234.97 37.32 234.98 37.04C234.99 36.77 235 36.5 235 36.23ZM235.38 33.16C235.55 32.36 235.81 31.66 236.16 31.05C236.5 30.44 236.97 29.95 237.56 29.59C238.14 29.23 238.89 29.05 239.79 29.05C240.29 29.05 240.77 29.12 241.21 29.27C241.65 29.42 242.02 29.66 242.33 30.01C242.64 30.36 242.87 30.82 243.05 31.41C243.23 32 243.31 32.74 243.31 33.64C243.31 33.99 243.31 34.32 243.31 34.64C243.31 34.96 243.28 35.3 243.23 35.68H235.05C235.09 34.79 235.2 33.96 235.38 33.16Z" fill="#383839"/>
<path d="M264.63 29.63C264.34 29.33 263.96 29.07 263.51 28.87C263.06 28.67 262.53 28.57 261.91 28.57C261.06 28.57 260.33 28.73 259.74 29.05C259.14 29.37 258.63 29.76 258.2 30.23C257.77 30.7 257.44 31.18 257.2 31.69C256.96 32.2 256.79 32.65 256.68 33.05H256.6V29.02H250.18V29.58H253.25V45.57H250.18V46.13H260.15V45.57H256.68V36.44C256.68 35.32 256.82 34.33 257.1 33.47C257.38 32.61 257.72 31.87 258.14 31.26C258.55 30.65 259 30.18 259.48 29.86C259.96 29.54 260.41 29.38 260.84 29.38C261.77 29.38 262.24 29.81 262.24 30.66C262.24 31.01 262.21 31.27 262.16 31.46C262.11 31.65 262.05 31.81 261.98 31.96C261.91 32.11 261.85 32.25 261.8 32.4C261.75 32.55 261.72 32.74 261.72 32.98C261.72 33.73 262.3 34.1 263.47 34.1C264 34.1 264.47 33.95 264.87 33.66C265.27 33.37 265.47 32.78 265.47 31.91C265.47 31.51 265.4 31.11 265.27 30.71C265.13 30.29 264.92 29.94 264.63 29.63Z" fill="#383839"/>
<path d="M281.7 31.88C281.7 31.48 281.63 31.08 281.5 30.68C281.37 30.28 281.15 29.93 280.86 29.62C280.57 29.32 280.19 29.06 279.74 28.86C279.29 28.66 278.76 28.56 278.14 28.56C277.29 28.56 276.56 28.72 275.97 29.04C275.37 29.36 274.86 29.75 274.43 30.22C274 30.69 273.67 31.17 273.43 31.68C273.19 32.19 273.02 32.64 272.91 33.04H272.83V29.01H266.41V29.57H269.48V45.56H266.41V46.12H276.38V45.56H272.91V36.43C272.91 35.31 273.05 34.32 273.33 33.46C273.61 32.6 273.95 31.86 274.37 31.25C274.78 30.64 275.23 30.17 275.71 29.85C276.19 29.53 276.64 29.37 277.07 29.37C278 29.37 278.47 29.8 278.47 30.65C278.47 31 278.44 31.26 278.39 31.45C278.34 31.64 278.28 31.8 278.21 31.95C278.14 32.1 278.08 32.24 278.03 32.39C277.98 32.54 277.95 32.73 277.95 32.97C277.95 33.72 278.53 34.09 279.7 34.09C280.23 34.09 280.7 33.94 281.1 33.65C281.5 33.34 281.7 32.76 281.7 31.88Z" fill="#383839"/>
<path d="M295.02 29.01V29.57H298.33L292.95 42.09L287.81 29.57H291.16V29.01H281.39V29.57H284.14L291.04 46.64L289.29 51.11C288.86 52.17 288.48 53.07 288.13 53.8C287.78 54.53 287.44 55.12 287.09 55.58C286.74 56.03 286.39 56.36 286.03 56.56C285.67 56.76 285.28 56.86 284.85 56.86C284.53 56.86 284.28 56.81 284.09 56.7C283.9 56.59 283.81 56.37 283.81 56.02C283.81 55.62 283.92 55.26 284.15 54.92C284.38 54.59 284.49 54.24 284.49 53.86C284.49 53.59 284.42 53.37 284.29 53.18C284.16 52.99 284 52.85 283.81 52.74C283.62 52.63 283.42 52.56 283.21 52.52C283 52.48 282.8 52.46 282.61 52.46C282.08 52.46 281.63 52.63 281.25 52.96C280.88 53.29 280.69 53.79 280.69 54.46C280.69 54.7 280.73 54.99 280.81 55.34C280.89 55.68 281.06 56.02 281.33 56.34C281.6 56.66 281.96 56.94 282.43 57.18C282.89 57.42 283.51 57.54 284.28 57.54C284.92 57.54 285.48 57.43 285.95 57.2C286.43 56.97 286.87 56.63 287.29 56.18C287.71 55.73 288.09 55.14 288.47 54.43C288.84 53.71 289.21 52.88 289.59 51.92C290.04 50.75 290.49 49.59 290.95 48.43C291.4 47.27 291.88 46.12 292.39 44.98L298.97 29.59H301.12V29.03H295.02V29.01Z" fill="#383839"/>
<path d="M43.86 70.48L42.49 61.06H41.78L36.62 70.48L35.31 61.06H34.55L36.01 71.49H36.82L41.94 62.16L43.31 71.49H44.12L49.73 61.06H48.96L43.86 70.48Z" fill="#383839"/>
<path d="M57.11 63.65C56.31 63.65 55.58 63.85 54.94 64.25C54.29 64.65 53.79 65.21 53.42 65.91C53.05 66.62 52.87 67.4 52.87 68.28C52.87 69.3 53.18 70.1 53.82 70.68C54.45 71.26 55.32 71.54 56.42 71.54C57.04 71.54 57.61 71.44 58.16 71.23C58.7 71.02 59.15 70.73 59.49 70.35L59.15 69.83C58.84 70.16 58.46 70.41 58 70.6C57.54 70.78 57.03 70.88 56.49 70.88C55.55 70.88 54.83 70.65 54.34 70.2C53.85 69.75 53.61 69.1 53.61 68.26C53.61 68.15 53.62 67.99 53.64 67.77H60.34C60.4 67.43 60.43 67.15 60.43 66.91C60.43 65.9 60.13 65.1 59.54 64.53C58.92 63.94 58.12 63.65 57.11 63.65ZM59.7 67.18H53.71C53.9 66.31 54.3 65.61 54.91 65.08C55.52 64.55 56.25 64.29 57.09 64.29C57.88 64.29 58.52 64.51 59 64.95C59.48 65.39 59.71 66 59.71 66.79C59.71 66.97 59.71 67.09 59.7 67.18Z" fill="#383839"/>
<path d="M71.12 63.65C70.44 63.65 69.83 63.78 69.28 64.04C68.73 64.3 68.26 64.68 67.89 65.16L68.83 60.42H68.08L65.88 71.47H66.61L67 69.49C67.19 70.15 67.55 70.65 68.07 71C68.6 71.35 69.27 71.53 70.08 71.53C70.91 71.53 71.67 71.33 72.34 70.93C73.01 70.53 73.54 69.97 73.92 69.26C74.3 68.55 74.49 67.75 74.49 66.87C74.49 65.88 74.18 65.09 73.57 64.51C72.96 63.93 72.14 63.65 71.12 63.65ZM73.26 68.96C72.95 69.56 72.51 70.02 71.96 70.37C71.41 70.72 70.79 70.88 70.09 70.88C69.22 70.88 68.54 70.65 68.05 70.19C67.56 69.73 67.32 69.09 67.32 68.27C67.32 67.52 67.48 66.84 67.8 66.24C68.12 65.64 68.55 65.17 69.1 64.83C69.65 64.49 70.27 64.32 70.97 64.32C71.84 64.32 72.52 64.55 73 65.01C73.48 65.47 73.72 66.11 73.72 66.93C73.73 67.69 73.57 68.36 73.26 68.96Z" fill="#383839"/>
<path d="M83.41 63.65C82.43 63.65 81.64 63.86 81.05 64.29C80.46 64.72 80.16 65.29 80.16 66C80.16 66.44 80.27 66.78 80.5 67.04C80.73 67.29 81.01 67.48 81.34 67.6C81.67 67.72 82.11 67.83 82.64 67.94C83.1 68.04 83.45 68.13 83.71 68.22C83.97 68.3 84.19 68.43 84.37 68.6C84.55 68.77 84.64 69 84.64 69.28C84.64 69.79 84.42 70.18 83.98 70.46C83.54 70.74 82.91 70.88 82.11 70.88C81.57 70.88 81.06 70.8 80.58 70.63C80.1 70.47 79.71 70.25 79.43 69.97L79.03 70.55C79.34 70.84 79.77 71.07 80.32 71.26C80.87 71.44 81.45 71.54 82.06 71.54C83.07 71.54 83.88 71.33 84.49 70.91C85.1 70.49 85.4 69.92 85.4 69.2C85.4 68.77 85.29 68.44 85.06 68.19C84.83 67.94 84.56 67.76 84.23 67.65C83.9 67.54 83.48 67.42 82.94 67.32C82.48 67.22 82.12 67.13 81.85 67.04C81.58 66.95 81.35 66.82 81.17 66.65C80.99 66.48 80.9 66.24 80.9 65.94C80.9 65.45 81.12 65.06 81.56 64.76C82 64.46 82.6 64.31 83.35 64.31C83.78 64.31 84.19 64.37 84.59 64.48C84.99 64.59 85.34 64.77 85.63 64.99L85.97 64.41C85.69 64.17 85.32 63.99 84.85 63.85C84.39 63.72 83.91 63.65 83.41 63.65Z" fill="#383839"/>
<path d="M93.51 60.61C93.32 60.61 93.16 60.67 93.04 60.8C92.92 60.93 92.85 61.08 92.85 61.26C92.85 61.41 92.9 61.54 93.01 61.65C93.12 61.76 93.25 61.81 93.41 61.81C93.6 61.81 93.76 61.75 93.89 61.62C94.02 61.5 94.08 61.34 94.08 61.15C94.08 61 94.02 60.87 93.91 60.76C93.81 60.67 93.67 60.61 93.51 60.61Z" fill="#383839"/>
<path d="M91.04 71.49H91.79L93.34 63.71H92.59L91.04 71.49Z" fill="#383839"/>
<path d="M101.72 62.01H100.97L100.63 63.71H99.18L99.06 64.35H100.51L99.51 69.3C99.47 69.49 99.45 69.69 99.45 69.9C99.45 70.42 99.61 70.82 99.92 71.11C100.23 71.4 100.67 71.55 101.22 71.55C101.91 71.55 102.46 71.38 102.89 71.03L102.67 70.48C102.3 70.77 101.88 70.91 101.4 70.91C100.61 70.91 100.21 70.54 100.21 69.79C100.21 69.61 100.23 69.43 100.27 69.24L101.25 64.35H103.72L103.84 63.71H101.37L101.72 62.01Z" fill="#383839"/>
<path d="M112.69 63.65C111.89 63.65 111.16 63.85 110.52 64.25C109.87 64.65 109.37 65.21 109 65.91C108.63 66.62 108.45 67.4 108.45 68.28C108.45 69.3 108.76 70.1 109.4 70.68C110.03 71.26 110.9 71.54 112 71.54C112.62 71.54 113.19 71.44 113.74 71.23C114.28 71.02 114.73 70.73 115.07 70.35L114.73 69.83C114.42 70.16 114.04 70.41 113.58 70.6C113.12 70.78 112.61 70.88 112.07 70.88C111.13 70.88 110.41 70.65 109.92 70.2C109.43 69.75 109.19 69.1 109.19 68.26C109.19 68.15 109.2 67.99 109.22 67.77H115.92C115.98 67.43 116.01 67.15 116.01 66.91C116.01 65.9 115.71 65.1 115.12 64.53C114.5 63.94 113.7 63.65 112.69 63.65ZM115.28 67.18H109.29C109.48 66.31 109.88 65.61 110.49 65.08C111.1 64.55 111.83 64.29 112.67 64.29C113.46 64.29 114.1 64.51 114.58 64.95C115.06 65.39 115.29 66 115.29 66.79C115.29 66.97 115.29 67.09 115.28 67.18Z" fill="#383839"/>
<path d="M145.95 61.58C145.22 61.23 144.34 61.06 143.32 61.06H139.45L137.36 71.49H141.68C142.97 71.49 144.11 71.23 145.09 70.7C146.07 70.17 146.83 69.44 147.37 68.5C147.91 67.56 148.17 66.48 148.17 65.28C148.17 64.44 147.98 63.7 147.6 63.06C147.22 62.42 146.67 61.93 145.95 61.58ZM146.7 68.15C146.24 68.98 145.58 69.63 144.72 70.1C143.86 70.57 142.86 70.8 141.72 70.8H138.25L140.07 61.74H143.23C144.6 61.74 145.64 62.06 146.34 62.69C147.04 63.32 147.4 64.19 147.4 65.3C147.4 66.37 147.17 67.32 146.7 68.15Z" fill="#383839"/>
<path d="M157.53 63.65C156.73 63.65 156 63.85 155.36 64.25C154.71 64.65 154.21 65.21 153.84 65.91C153.47 66.62 153.29 67.4 153.29 68.28C153.29 69.3 153.6 70.1 154.24 70.68C154.87 71.26 155.74 71.54 156.84 71.54C157.46 71.54 158.03 71.44 158.58 71.23C159.12 71.02 159.57 70.73 159.91 70.35L159.57 69.83C159.26 70.16 158.88 70.41 158.42 70.6C157.96 70.78 157.45 70.88 156.91 70.88C155.97 70.88 155.25 70.65 154.76 70.2C154.27 69.75 154.03 69.1 154.03 68.26C154.03 68.15 154.04 67.99 154.06 67.77H160.76C160.82 67.43 160.85 67.15 160.85 66.91C160.85 65.9 160.55 65.1 159.96 64.53C159.37 63.96 158.54 63.65 157.53 63.65ZM160.12 67.18H154.13C154.32 66.31 154.72 65.61 155.33 65.08C155.94 64.55 156.67 64.29 157.51 64.29C158.3 64.29 158.94 64.51 159.42 64.95C159.9 65.39 160.13 66 160.13 66.79C160.13 66.97 160.13 67.09 160.12 67.18Z" fill="#383839"/>
<path d="M168.67 70.67L166.94 63.71H166.18L168.15 71.49H168.91L173.96 63.71H173.17L168.67 70.67Z" fill="#383839"/>
<path d="M181.91 63.65C181.11 63.65 180.38 63.85 179.74 64.25C179.1 64.65 178.59 65.21 178.22 65.91C177.85 66.61 177.67 67.4 177.67 68.28C177.67 69.3 177.98 70.1 178.62 70.68C179.25 71.26 180.12 71.54 181.22 71.54C181.84 71.54 182.41 71.44 182.96 71.23C183.5 71.02 183.95 70.73 184.29 70.35L183.95 69.83C183.64 70.16 183.26 70.41 182.8 70.6C182.34 70.78 181.83 70.88 181.29 70.88C180.35 70.88 179.63 70.65 179.15 70.2C178.66 69.75 178.42 69.1 178.42 68.26C178.42 68.15 178.43 67.99 178.45 67.77H185.15C185.21 67.43 185.24 67.15 185.24 66.91C185.24 65.9 184.94 65.1 184.35 64.53C183.73 63.94 182.93 63.65 181.91 63.65ZM184.51 67.18H178.52C178.71 66.31 179.11 65.61 179.72 65.08C180.33 64.55 181.06 64.29 181.9 64.29C182.69 64.29 183.33 64.51 183.81 64.95C184.29 65.39 184.52 66 184.52 66.79C184.52 66.97 184.52 67.09 184.51 67.18Z" fill="#383839"/>
<path d="M190.69 71.49H191.43L193.64 60.44H192.89L190.69 71.49Z" fill="#383839"/>
<path d="M202.9 63.65C202.05 63.65 201.28 63.85 200.61 64.26C199.93 64.67 199.41 65.22 199.02 65.93C198.64 66.64 198.45 67.43 198.45 68.31C198.45 69.29 198.76 70.08 199.38 70.66C200 71.25 200.84 71.54 201.89 71.54C202.74 71.54 203.51 71.34 204.18 70.94C204.86 70.54 205.38 69.98 205.77 69.27C206.15 68.56 206.34 67.76 206.34 66.88C206.34 65.89 206.03 65.1 205.41 64.52C204.79 63.94 203.96 63.65 202.9 63.65ZM205.12 68.96C204.8 69.56 204.37 70.03 203.82 70.37C203.27 70.71 202.65 70.88 201.95 70.88C201.08 70.88 200.4 70.65 199.92 70.19C199.44 69.73 199.2 69.09 199.2 68.27C199.2 67.52 199.36 66.85 199.68 66.25C200 65.65 200.43 65.18 200.98 64.83C201.53 64.49 202.15 64.32 202.85 64.32C203.72 64.32 204.4 64.55 204.88 65.01C205.36 65.47 205.6 66.11 205.6 66.93C205.6 67.69 205.44 68.36 205.12 68.96Z" fill="#383839"/>
<path d="M217.04 63.65C216.35 63.65 215.73 63.79 215.18 64.06C214.62 64.33 214.16 64.72 213.78 65.22L214.08 63.72H213.35L211.22 74.39H211.97L212.94 69.56C213.14 70.21 213.5 70.7 214.02 71.04C214.54 71.38 215.2 71.55 216.01 71.55C216.84 71.55 217.6 71.35 218.27 70.95C218.94 70.55 219.47 69.99 219.85 69.28C220.23 68.57 220.42 67.77 220.42 66.89C220.42 65.9 220.11 65.11 219.5 64.53C218.87 63.94 218.06 63.65 217.04 63.65ZM219.18 68.96C218.87 69.56 218.44 70.02 217.88 70.37C217.33 70.71 216.71 70.88 216.01 70.88C215.14 70.88 214.46 70.65 213.97 70.19C213.48 69.73 213.24 69.09 213.24 68.27C213.24 67.52 213.4 66.84 213.72 66.24C214.04 65.64 214.47 65.17 215.02 64.83C215.57 64.49 216.19 64.32 216.89 64.32C217.76 64.32 218.44 64.55 218.92 65.01C219.4 65.47 219.64 66.11 219.64 66.93C219.65 67.69 219.49 68.36 219.18 68.96Z" fill="#383839"/>
<path d="M236.91 63.65C236.2 63.65 235.55 63.8 234.97 64.09C234.39 64.38 233.91 64.82 233.52 65.39C233.38 64.83 233.09 64.4 232.66 64.1C232.22 63.8 231.65 63.65 230.93 63.65C230.27 63.65 229.68 63.77 229.16 64.02C228.63 64.27 228.19 64.65 227.82 65.17L228.12 63.71H227.39L225.84 71.49H226.58L227.43 67.26C227.62 66.31 228 65.58 228.58 65.08C229.16 64.58 229.88 64.33 230.74 64.33C231.43 64.33 231.95 64.5 232.3 64.83C232.66 65.16 232.84 65.63 232.84 66.24C232.84 66.52 232.82 66.77 232.77 67L231.86 71.5H232.61L233.5 67.09C233.68 66.2 234.05 65.51 234.62 65.04C235.19 64.57 235.9 64.33 236.76 64.33C237.45 64.33 237.97 64.5 238.32 64.83C238.68 65.16 238.86 65.63 238.86 66.24C238.86 66.52 238.84 66.77 238.79 67L237.88 71.5H238.63L239.54 67C239.6 66.68 239.63 66.39 239.63 66.12C239.63 65.35 239.4 64.74 238.93 64.31C238.46 63.87 237.79 63.65 236.91 63.65Z" fill="#383839"/>
<path d="M249.83 63.65C249.03 63.65 248.3 63.85 247.66 64.25C247.02 64.65 246.51 65.21 246.14 65.91C245.77 66.61 245.59 67.4 245.59 68.28C245.59 69.3 245.91 70.1 246.54 70.68C247.17 71.26 248.04 71.54 249.14 71.54C249.76 71.54 250.33 71.44 250.88 71.23C251.42 71.02 251.87 70.73 252.21 70.35L251.87 69.83C251.56 70.16 251.18 70.41 250.72 70.6C250.26 70.78 249.75 70.88 249.21 70.88C248.27 70.88 247.55 70.65 247.06 70.2C246.57 69.75 246.33 69.1 246.33 68.26C246.33 68.15 246.34 67.99 246.36 67.77H253.06C253.12 67.43 253.15 67.15 253.15 66.91C253.15 65.9 252.85 65.1 252.26 64.53C251.65 63.94 250.84 63.65 249.83 63.65ZM252.42 67.18H246.43C246.62 66.31 247.02 65.61 247.63 65.08C248.24 64.55 248.97 64.29 249.81 64.29C250.6 64.29 251.24 64.51 251.72 64.95C252.2 65.39 252.44 66 252.44 66.79C252.44 66.97 252.43 67.09 252.42 67.18Z" fill="#383839"/>
<path d="M263.8 63.65C263.13 63.65 262.51 63.78 261.96 64.03C261.41 64.28 260.95 64.67 260.58 65.18L260.88 63.71H260.15L258.6 71.49H259.34L260.19 67.26C260.38 66.31 260.77 65.58 261.37 65.08C261.97 64.58 262.71 64.33 263.6 64.33C264.31 64.33 264.86 64.5 265.23 64.83C265.6 65.16 265.79 65.64 265.79 66.25C265.79 66.52 265.76 66.77 265.71 67L264.82 71.5H265.57L266.46 67C266.52 66.7 266.55 66.42 266.55 66.15C266.55 65.37 266.31 64.77 265.83 64.32C265.37 63.87 264.69 63.65 263.8 63.65Z" fill="#383839"/>
<path d="M274.96 64.35H277.43L277.55 63.71H275.08L275.42 62.01H274.68L274.34 63.71H272.89L272.77 64.35H274.22L273.22 69.3C273.18 69.49 273.16 69.69 273.16 69.9C273.16 70.42 273.32 70.82 273.63 71.11C273.94 71.4 274.38 71.55 274.93 71.55C275.62 71.55 276.17 71.38 276.6 71.03L276.38 70.48C276.01 70.77 275.59 70.91 275.11 70.91C274.32 70.91 273.92 70.54 273.92 69.79C273.92 69.61 273.94 69.43 273.98 69.24L274.96 64.35Z" fill="#383839"/>
<path d="M288.76 68.26V78.23H224.87V79.9H288.76H290.43H290.44V68.26H288.76Z" fill="#AA182C"/>
<path d="M19.51 53.48V65.12H21.18V55.15H85.07V53.48H21.18H19.51Z" fill="#AA182C"/>
</svg>
